<svg id="&#x421;&#x43B;&#x43E;&#x439;_1" xmlns="http://www.w3.org/2000/svg" viewBox="0 0 116.7 52.9" preserveAspectRatio="none"><style>.st1{fill:#d190bf}.st2{fill:#f3837a}.st3{fill:#f9a533}.st4{fill:#ffd430}.st5{fill:#f05a22}.st6{fill:#ee4023}.st7{fill:#d1232a}.st8{fill:#b8292f}.st9{fill:#ec1c24}.st10{fill:#e21f26}.st11{fill:#fff}</style><path fill="#fff" class="st0" d="M64.9 21.3l6.3-7.3v9.8h-2.1v-4.5l-4.2 4.8-4.1-4.8v4.5h-2.1V14l6.2 7.3zM84 23.8h-2.3l-.8-1.4h-5.5l-.8 1.4h-2.3l5.8-9.8 5.9 9.8zm-7.4-3.3h3.2l-1.6-2.8-1.6 2.8zM94 14.3l-1 1.9h-5.7v7.6h-2.2v-9.5H94zM97.2 14.3v5.9L105 14v9.8h-2.2v-5.9L95 24.1v-9.8h2.2zM115 17.6c-.4-.5-.8-.9-1.3-1.2-.5-.3-1.1-.4-1.9-.4-.5 0-.9.1-1.3.2s-.7.3-1 .6c-.3.3-.5.6-.6 1-.1.4-.2.8-.2 1.3s.1.9.2 1.3.4.7.6 1c.3.3.6.5 1 .6.4.1.8.2 1.3.2.8 0 1.4-.1 1.9-.4.5-.3.9-.7 1.3-1.2l1.7 1c-.5.8-1.1 1.5-1.9 1.9-.8.4-1.8.7-2.9.7-.8 0-1.5-.1-2.1-.3s-1.2-.6-1.7-1-.8-1-1.1-1.6c-.3-.6-.4-1.3-.4-2.1s.1-1.5.4-2.1c.3-.6.7-1.1 1.1-1.6.5-.4 1-.8 1.7-1 .6-.2 1.3-.3 2.1-.3 1.1 0 2.1.2 2.9.7.8.4 1.5 1.1 1.9 1.9l-1.7.8z"/><g><path fill="#fff" class="st0" d="M66.8 32.5c-.4-.5-.8-.9-1.3-1.2-.5-.3-1.1-.4-1.9-.4-.5 0-.9.1-1.3.2s-.7.3-1 .6c-.3.3-.5.6-.6 1-.1.4-.2.8-.2 1.3s.1.9.2 1.3c.2.4.4.7.6 1 .3.3.6.5 1 .6.4.1.8.2 1.3.2.8 0 1.4-.1 1.9-.4.5-.3.9-.7 1.3-1.2l1.7 1c-.5.8-1.1 1.5-1.9 1.9-.8.4-1.8.7-2.9.7-.8 0-1.5-.1-2.1-.3s-1.2-.6-1.7-1-.8-1-1.1-1.6c-.3-.6-.4-1.3-.4-2.1s.1-1.5.4-2.1c.3-.6.7-1.1 1.1-1.6.5-.4 1-.8 1.7-1 .6-.2 1.3-.3 2.1-.3 1.1 0 2.1.2 2.9.7.8.4 1.5 1.1 1.9 1.9l-1.7.8zM79.2 29.2v9.5H77v-7.6h-5v7.6h-2.2v-9.5h9.4zM91.5 34c0 .7-.1 1.4-.4 2-.3.6-.7 1.1-1.2 1.6-.5.4-1 .8-1.7 1-.6.2-1.3.4-2.1.4s-1.4-.1-2.1-.4c-.6-.2-1.2-.6-1.7-1s-.9-1-1.2-1.6c-.3-.6-.4-1.3-.4-2s.1-1.4.4-2c.3-.6.7-1.1 1.2-1.6.5-.4 1-.8 1.7-1 .6-.2 1.3-.4 2.1-.4s1.4.1 2.1.4c.6.2 1.2.6 1.7 1s.9 1 1.2 1.6c.2.5.4 1.2.4 2zM83 34c0 .5.1.9.2 1.3.2.4.4.7.7 1 .3.3.6.5 1 .6.4.1.8.2 1.3.2.4 0 .9-.1 1.3-.2s.7-.4 1-.6c.3-.3.5-.6.7-1 .2-.4.2-.8.2-1.3s-.1-.9-.2-1.3c-.2-.4-.4-.7-.7-1-.3-.3-.6-.5-1-.6-.4-.1-.8-.2-1.3-.2-.4 0-.9.1-1.3.2s-.7.4-1 .6c-.3.3-.5.6-.7 1-.2.3-.2.8-.2 1.3zM98.6 29.2c.6 0 1.1.1 1.6.3.5.2.9.4 1.2.8.4.3.6.7.8 1.2.2.5.3 1 .3 1.5 0 .6-.1 1.1-.3 1.5-.2.5-.5.8-.8 1.2-.4.3-.8.6-1.2.7-.5.2-1 .3-1.6.3h-3.5v2.1H93v-9.5h5.6zm-3.4 5.4h3.4c.6 0 1-.1 1.3-.4.3-.3.5-.7.5-1.3 0-.6-.2-1-.5-1.3-.3-.3-.8-.5-1.3-.5h-3.4v3.5zM113.5 29.2l-1 1.9h-3.1v7.6h-2.2v-7.6h-3.1l-1-1.9h10.4z"/></g><g><path class="st1" d="M26.5 52.9L21 39.1 9.2 43.7z"/><path class="st2" d="M43.7 43.7l-11.8-4.6-5.4 13.8z"/><path class="st3" d="M9.2 9.2L21 13.8 26.5 0z"/><path class="st4" d="M26.5 0l5.4 13.8 11.8-4.6z"/><path class="st3" d="M39.1 31.9l4.6 11.8 9.2-17.2z"/><path class="st4" d="M43.7 9.2L39.1 21l13.8 5.5z"/><path class="st1" d="M9.2 43.7l4.6-11.8L0 26.5z"/><path class="st2" d="M9.2 9.2L0 26.5 13.8 21z"/><path class="st5" d="M39.1 21l-2.2 5.5 2.2 5.4 13.8-5.4z"/><path class="st6" d="M21 13.8L9.2 9.2 13.8 21l5.2-2z"/><path class="st5" d="M31.9 13.8l2 5.2 5.2 2 4.6-11.8zM21 13.8l5.5 2.2 5.4-2.2L26.5 0z"/><path class="st7" d="M31.9 39.1l2-5.2-7.4 3zM31.9 13.8L26.5 16l7.4 3zM21 13.8L19 19l7.5-3zM21 39.1l5.5-2.2-7.5-3z"/><path class="st8" d="M33.9 33.9l5.2-2-2.2-5.4zM13.8 31.9l5.2 2-3-7.4zM19 19l-5.2 2 2.2 5.5zM39.1 21l-5.2-2 3 7.5z"/><path class="st8" d="M26.5 16L19 19l-3 7.5 3 7.4 7.5 3 7.4-3 3-7.4-3-7.5z"/><path class="st9" d="M13.8 21L0 26.5l13.8 5.4 2.2-5.4zM21 39.1l5.5 13.8 5.4-13.8-5.4-2.2z"/><path class="st10" d="M13.8 31.9L9.2 43.7 21 39.1l-2-5.2z"/><path class="st6" d="M31.9 39.1l11.8 4.6-4.6-11.8-5.2 2z"/><path class="st11" d="M26.5 26.5L16 16v20.9l5.6-5.6v-2.9l4.9 4.9 4.8-4.9v2.9l5.6 5.6V16z"/></g></svg>